<?xml version="1.0" encoding="UTF-8" standalone="no"?>
<svg
   xmlns:dc="http://purl.org/dc/elements/1.1/"
   xmlns:cc="http://creativecommons.org/ns#"
   xmlns:rdf="http://www.w3.org/1999/02/22-rdf-syntax-ns#"
   xmlns:svg="http://www.w3.org/2000/svg"
   xmlns="http://www.w3.org/2000/svg"
   xmlns:sodipodi="http://sodipodi.sourceforge.net/DTD/sodipodi-0.dtd"
   xmlns:inkscape="http://www.inkscape.org/namespaces/inkscape"
   version="1.0"
   width="200pt"
   height="70pt"
   viewBox="0 0 200 70"
   preserveAspectRatio="xMidYMid meet"
   id="svg174"
   sodipodi:docname="edu.svg"
   inkscape:version="0.92.4 (fd57863, 2020-04-02)">
  <metadata
     id="metadata180">
    <rdf:RDF>
      <cc:Work
         rdf:about="">
        <dc:format>image/svg+xml</dc:format>
        <dc:type
           rdf:resource="http://purl.org/dc/dcmitype/StillImage" />
        <dc:title />
      </cc:Work>
    </rdf:RDF>
  </metadata>
  <defs
     id="defs178" />
  <sodipodi:namedview
     pagecolor="#ffffff"
     bordercolor="#666666"
     borderopacity="1"
     objecttolerance="10"
     gridtolerance="10"
     guidetolerance="10"
     inkscape:pageopacity="0"
     inkscape:pageshadow="2"
     inkscape:window-width="927"
     inkscape:window-height="1025"
     id="namedview176"
     showgrid="false"
     inkscape:zoom="1.4075547"
     inkscape:cx="183.13338"
     inkscape:cy="92.173505"
     inkscape:window-x="67"
     inkscape:window-y="27"
     inkscape:window-maximized="0"
     inkscape:current-layer="svg174" />
  <g
     transform="matrix(0.00495359,0,0,-0.00584955,0.01705788,65.640532)"
     id="g172"
     style="fill:#000000;stroke:none">
    <path
       d="m 6094,10050 c -5,-4 -614,-377 -1354,-827 C 635,6723 20,6347 20,6338 c 0,-25 349,27 618,92 1166,283 3094,1102 4302,1828 637,382 1066,737 1191,983 16,33 33,59 38,59 5,0 31,-32 57,-72 264,-396 1212,-983 2594,-1605 1393,-627 2942,-1151 3690,-1247 123,-16 257,-23 266,-13 3,3 -5,12 -18,20 -21,14 -1662,918 -5133,2829 -808,446 -1482,818 -1496,828 -15,10 -30,15 -35,10 z"
       id="path162"
       inkscape:connector-curvature="0" />
    <path
       d="m 7550,6913 c -35,-9 -151,-17 -315,-23 -352,-13 -495,-38 -557,-97 -46,-44 -33,-103 26,-128 18,-8 116,-21 217,-30 311,-27 450,-64 604,-159 102,-65 150,-115 231,-247 56,-93 97,-142 224,-274 86,-88 182,-195 213,-238 120,-162 212,-226 489,-336 258,-102 344,-116 678,-111 521,9 666,5 764,-19 131,-32 326,-128 326,-161 0,-5 -57,-39 -127,-76 C 8821,4223 7408,3273 6755,2615 c -144,-145 -260,-286 -319,-387 -15,-27 -31,-48 -36,-48 -5,0 -20,22 -34,50 -134,267 -554,642 -1219,1087 -1412,946 -3599,1992 -4677,2237 -189,43 -418,68 -389,42 2,-2 619,-413 1371,-914 751,-501 1370,-916 1374,-924 14,-22 6,-366 -11,-513 -31,-268 -84,-508 -166,-762 -41,-126 -76,-195 -191,-372 -26,-40 -48,-80 -48,-88 0,-12 19,-13 113,-8 61,4 118,8 125,11 19,6 219,-15 302,-32 332,-68 741,-251 1155,-517 77,-50 223,-143 325,-207 431,-271 527,-335 953,-633 389,-272 464,-308 1087,-519 162,-55 300,-104 307,-110 17,-14 33,-1 33,25 0,50 -127,155 -802,664 -523,394 -881,677 -1093,863 -461,406 -806,603 -1205,689 -101,21 -350,55 -488,66 -45,4 -84,11 -87,16 -3,4 8,36 25,69 132,262 253,630 285,868 4,29 13,56 20,58 7,3 655,-423 1439,-946 869,-579 1432,-948 1439,-943 7,4 684,479 1505,1056 1003,704 1499,1047 1509,1043 14,-6 15,-28 10,-189 -3,-100 -15,-276 -27,-392 -11,-115 -23,-255 -28,-310 l -7,-100 -120,-17 c -258,-37 -387,-81 -541,-184 -94,-62 -237,-198 -331,-315 -287,-354 -849,-1362 -991,-1775 -24,-71 -32,-135 -16,-141 6,-2 41,34 78,79 253,311 562,606 1455,1392 443,391 696,621 884,806 l 138,135 -25,125 c -33,163 -63,359 -81,540 -19,182 -30,542 -18,595 8,39 20,48 523,402 433,305 549,381 550,361 0,-2 9,-52 20,-113 30,-161 36,-437 16,-781 -22,-385 -8,-483 69,-492 52,-7 101,63 148,213 71,228 111,513 126,910 8,189 14,251 36,350 15,66 30,151 33,189 l 7,69 699,491 699,491 -49,3 c -244,16 -881,-190 -1571,-510 l -156,-72 -36,21 c -20,11 -72,41 -115,66 -229,133 -474,213 -1066,347 -526,119 -761,195 -1041,335 -329,165 -467,282 -589,496 -35,63 -84,135 -107,160 -52,55 -280,209 -308,208 -11,-1 -45,-8 -75,-16 z"
       id="path164"
       inkscape:connector-curvature="0" />
    <path
       d="m 5685,6698 c -45,-16 -111,-84 -136,-142 -15,-34 -24,-78 -27,-131 -12,-220 146,-401 390,-451 40,-8 159,-17 264,-21 185,-6 193,-5 227,16 19,11 50,21 70,21 27,0 41,7 61,31 29,34 32,55 15,93 -17,38 -66,50 -120,32 -140,-48 -276,-16 -392,92 -71,67 -93,107 -128,234 -16,62 -39,132 -49,155 -31,71 -98,98 -175,71 z"
       id="path166"
       inkscape:connector-curvature="0" />
    <path
       d="m 10890,2916 c 0,-9 4,-16 9,-16 17,0 91,-112 133,-200 53,-111 70,-156 129,-328 l 49,-143 -30,-186 c -38,-234 -55,-302 -131,-510 -130,-359 -151,-604 -70,-840 87,-253 318,-463 620,-562 35,-12 68,-21 72,-21 5,0 -18,53 -50,118 -154,308 -224,594 -225,917 0,271 32,459 105,600 23,44 57,110 76,146 30,56 36,80 40,150 7,103 -19,320 -48,415 -85,279 -295,441 -606,469 -62,5 -73,4 -73,-9 z"
       id="path168"
       inkscape:connector-curvature="0" />
    <path
       d="m 10416,2804 c -211,-42 -384,-146 -470,-283 -71,-112 -111,-307 -105,-510 4,-128 -1,-113 108,-313 93,-171 136,-510 96,-755 -40,-247 -154,-477 -321,-653 -42,-44 -75,-83 -72,-85 7,-8 175,23 253,46 182,54 317,132 428,248 128,134 180,273 180,481 0,149 -27,278 -100,474 -74,201 -106,327 -139,543 l -28,180 28,79 c 65,185 154,342 247,433 51,51 154,111 191,111 9,0 20,5 23,10 9,15 -237,11 -319,-6 z"
       id="path170"
       inkscape:connector-curvature="0" />
  </g>
  <text
     xml:space="preserve"
     style="font-style:normal;font-weight:normal;font-size:28.00622559px;line-height:1.25;font-family:sans-serif;letter-spacing:0px;word-spacing:0px;fill:#000000;fill-opacity:1;stroke:none;stroke-width:0.70015568"
     x="66.878685"
     y="43.924309"
     id="text3887"
     transform="scale(0.94288287,1.0605771)"><tspan
       sodipodi:role="line"
       id="tspan3885"
       x="66.878685"
       y="43.924309"
       style="stroke-width:0.70015568">Educación</tspan></text>
</svg>
