<?xml version="1.0" encoding="UTF-8" standalone="no"?>
<svg
   xmlns:dc="http://purl.org/dc/elements/1.1/"
   xmlns:cc="http://creativecommons.org/ns#"
   xmlns:rdf="http://www.w3.org/1999/02/22-rdf-syntax-ns#"
   xmlns:svg="http://www.w3.org/2000/svg"
   xmlns="http://www.w3.org/2000/svg"
   xmlns:sodipodi="http://sodipodi.sourceforge.net/DTD/sodipodi-0.dtd"
   xmlns:inkscape="http://www.inkscape.org/namespaces/inkscape"
   version="1.0"
   width="200pt"
   height="70pt"
   viewBox="0 0 200 70"
   preserveAspectRatio="xMidYMid meet"
   id="svg3961"
   sodipodi:docname="exp.svg"
   inkscape:version="0.92.4 (fd57863, 2020-04-02)">
  <metadata
     id="metadata3967">
    <rdf:RDF>
      <cc:Work
         rdf:about="">
        <dc:format>image/svg+xml</dc:format>
        <dc:type
           rdf:resource="http://purl.org/dc/dcmitype/StillImage" />
        <dc:title />
      </cc:Work>
    </rdf:RDF>
  </metadata>
  <defs
     id="defs3965" />
  <sodipodi:namedview
     pagecolor="#ffffff"
     bordercolor="#666666"
     borderopacity="1"
     objecttolerance="10"
     gridtolerance="10"
     guidetolerance="10"
     inkscape:pageopacity="0"
     inkscape:pageshadow="2"
     inkscape:window-width="927"
     inkscape:window-height="1025"
     id="namedview3963"
     showgrid="false"
     inkscape:zoom="1.6045885"
     inkscape:cx="149.86735"
     inkscape:cy="82.347133"
     inkscape:window-x="993"
     inkscape:window-y="27"
     inkscape:window-maximized="0"
     inkscape:current-layer="svg3961" />
  <g
     transform="matrix(0.00506699,0,0,-0.00485402,4.8626941,66.459533)"
     id="g3959"
     style="fill:#000000;stroke:none">
    <path
       d="m 1534,12329 c -41,-83 -73,-157 -71,-163 3,-7 366,-218 808,-471 442,-252 817,-467 833,-478 l 29,-20 -7,-126 c -18,-331 -90,-630 -212,-874 -158,-316 -409,-587 -725,-782 -49,-30 -97,-55 -108,-55 -10,0 -389,212 -841,470 -452,259 -826,470 -831,470 -5,0 -25,-32 -44,-70 l -35,-70 29,-85 c 127,-359 323,-720 528,-975 326,-405 774,-685 1318,-825 236,-60 469,-91 790,-104 183,-7 205,-10 265,-35 257,-105 677,-433 1279,-1000 59,-55 267,-257 464,-449 l 359,-350 631,631 630,631 -374,383 c -681,696 -1003,1046 -1284,1398 -233,293 -354,478 -393,607 -17,56 -22,105 -26,278 -10,386 -48,646 -132,908 -251,780 -923,1175 -2162,1271 -341,27 -486,36 -564,36 h -78 z"
       id="path3953"
       inkscape:connector-curvature="0" />
    <path
       d="m 10800,11510 c -432,-303 -788,-558 -792,-568 -4,-9 -37,-136 -73,-282 -36,-146 -71,-283 -76,-305 -9,-35 -287,-316 -2327,-2357 C 6258,6723 5208,5680 5200,5680 c -9,0 -153,86 -320,190 -167,105 -309,190 -315,190 -6,0 -79,-69 -163,-153 -138,-138 -152,-156 -152,-187 0,-75 -31,-236 -66,-341 -37,-112 -104,-239 -176,-337 -271,-367 -793,-664 -1271,-725 L 2640,4305 1319,2985 -1,1665 3,1625 C 55,1207 247,836 578,519 890,219 1230,52 1625,3 l 40,-4 1320,1320 1320,1321 12,97 c 62,485 359,1002 737,1280 91,67 211,128 328,168 101,34 263,65 338,65 32,0 49,14 189,154 143,143 154,157 144,178 -6,13 -92,153 -192,313 -100,159 -181,296 -181,305 0,8 1043,1058 2318,2332 2041,2040 2322,2318 2357,2327 22,5 165,41 319,80 153,38 282,73 286,78 10,11 1073,1532 1091,1561 13,21 5,31 -216,252 -126,127 -234,230 -240,230 -5,0 -363,-248 -795,-550 z"
       id="path3955"
       inkscape:connector-curvature="0" />
    <path
       d="m 6965,5990 -630,-630 280,-282 C 7805,3878 8315,3298 8500,2929 c 60,-118 68,-160 74,-394 12,-480 81,-836 217,-1124 173,-367 489,-648 920,-819 402,-160 1055,-261 1684,-262 h 121 l 74,150 c 65,131 73,152 60,164 -8,7 -373,217 -810,466 -437,249 -808,462 -824,473 l -29,20 7,126 c 40,742 346,1284 932,1653 51,32 102,58 112,58 11,0 390,-212 842,-470 452,-259 826,-470 831,-470 5,0 25,32 44,70 l 35,70 -29,85 c -127,359 -322,719 -528,975 -326,406 -771,684 -1318,825 -235,60 -469,91 -790,104 -189,8 -204,10 -277,38 -208,82 -522,315 -969,719 -218,198 -351,326 -836,801 -242,238 -443,433 -445,433 -2,0 -287,-283 -633,-630 z"
       id="path3957"
       inkscape:connector-curvature="0" />
  </g>
  <text
     xml:space="preserve"
     style="font-style:normal;font-weight:normal;font-size:21.8889122px;line-height:1.25;font-family:sans-serif;letter-spacing:0px;word-spacing:0px;fill:#000000;fill-opacity:1;stroke:none;stroke-width:0.54722279"
     x="73.329689"
     y="40.812531"
     id="text3971"
     transform="scale(0.94649851,1.0565257)"><tspan
       sodipodi:role="line"
       id="tspan3969"
       x="73.329689"
       y="40.812531"
       style="stroke-width:0.54722279">Experiencia</tspan></text>
</svg>
