<?xml version="1.0" encoding="UTF-8" standalone="no"?>
<svg
   xmlns:dc="http://purl.org/dc/elements/1.1/"
   xmlns:cc="http://creativecommons.org/ns#"
   xmlns:rdf="http://www.w3.org/1999/02/22-rdf-syntax-ns#"
   xmlns:svg="http://www.w3.org/2000/svg"
   xmlns="http://www.w3.org/2000/svg"
   xmlns:sodipodi="http://sodipodi.sourceforge.net/DTD/sodipodi-0.dtd"
   xmlns:inkscape="http://www.inkscape.org/namespaces/inkscape"
   version="1.0"
   width="200mm"
   height="70mm"
   viewBox="0 0 566.92913 198.4252"
   preserveAspectRatio="xMidYMid meet"
   id="svg94"
   sodipodi:docname="home.svg"
   inkscape:version="0.92.4 (fd57863, 2020-04-02)">
  <defs
     id="defs98" />
  <sodipodi:namedview
     pagecolor="#ffffff"
     bordercolor="#666666"
     borderopacity="1"
     objecttolerance="10"
     gridtolerance="10"
     guidetolerance="10"
     inkscape:pageopacity="0"
     inkscape:pageshadow="2"
     inkscape:window-width="1853"
     inkscape:window-height="1025"
     id="namedview96"
     showgrid="false"
     units="mm"
     height="100mm"
     inkscape:zoom="0.64"
     inkscape:cx="372.77473"
     inkscape:cy="275.50359"
     inkscape:window-x="67"
     inkscape:window-y="27"
     inkscape:window-maximized="1"
     inkscape:current-layer="layer1" />
  <metadata
     id="metadata84">
Created by potrace 1.15, written by Peter Selinger 2001-2017
<rdf:RDF>
  <cc:Work
     rdf:about="">
    <dc:format>image/svg+xml</dc:format>
    <dc:type
       rdf:resource="http://purl.org/dc/dcmitype/StillImage" />
    <dc:title />
  </cc:Work>
</rdf:RDF>
</metadata>
  <g
     inkscape:groupmode="layer"
     id="layer1"
     inkscape:label="Layer 1">
    <g
       transform="matrix(0.01798969,0,0,-0.01602374,6.8279819,201.34319)"
       id="g92"
       style="fill:#000000;stroke:none">
      <path
         d="M 4969,10256 C 4323,9684 3144,8640 2349,7936 1555,7233 904,6654 902,6650 c -3,-8 537,-620 548,-620 4,0 407,354 896,788 489,433 1515,1341 2278,2017 764,677 1426,1263 1472,1302 l 82,73 2358,-2090 c 1298,-1149 2364,-2089 2369,-2089 6,0 131,138 279,306 196,223 267,309 260,319 -5,7 -1185,1054 -2621,2327 -2305,2040 -2617,2313 -2645,2314 -30,1 -146,-100 -1209,-1041 z"
         id="path86"
         inkscape:connector-curvature="0" />
      <path
         d="m 2470,9648 v -992 l 33,30 c 31,30 1280,1156 1284,1158 0,1 5,180 9,399 l 7,397 h -667 -666 z"
         id="path88"
         inkscape:connector-curvature="0" />
      <path
         d="M 5744,9127 C 5508,8917 4674,8178 3892,7486 L 2470,6227 V 3856 c 0,-2275 1,-2373 19,-2411 23,-51 74,-101 120,-117 28,-10 286,-13 1216,-13 h 1180 l 5,1065 c 5,985 6,1067 22,1097 23,42 80,88 127,102 28,8 315,11 1027,11 939,0 991,-1 1030,-19 57,-26 110,-92 123,-153 7,-33 11,-392 11,-1078 V 1310 h 1163 c 1261,0 1218,-2 1291,54 19,14 43,45 55,69 l 21,43 1,2375 1,2374 -314,280 c -289,258 -3344,2963 -3378,2991 -13,10 -83,-48 -446,-369 z"
         id="path90"
         inkscape:connector-curvature="0" />
    </g>
    <text
       xml:space="preserve"
       style="font-style:normal;font-weight:normal;font-size:24.81590652px;line-height:1.25;font-family:sans-serif;letter-spacing:0px;word-spacing:0px;fill:#000000;fill-opacity:1;stroke:none;stroke-width:0.62039763"
       x="261.50009"
       y="145.65753"
       id="text102"
       transform="scale(1.0272118,0.97350907)"><tspan
         sodipodi:role="line"
         id="tspan100"
         x="261.50009"
         y="145.65753"
         style="font-size:82.71968079px;stroke-width:0.62039763">Inicio</tspan></text>
  </g>
</svg>
